SplineFontDB: 3.0
FontName: GoudyBookletter1911
FullName: Goudy Bookletter 1911
FamilyName: GoudyBookletter1911
Weight: Book
Copyright: Created by trashman with FontForge 2.0 (http://fontforge.sf.net)
UComments: "Scaling: cut 3200-dpi samples 640 pixels high, then scale them to 130%." 
Version: 001.000
ItalicAngle: 0
UnderlinePosition: -204
UnderlineWidth: 102
Ascent: 1638
Descent: 410
LayerCount: 3
Layer: 0 0 "Back"  1
Layer: 1 0 "Fore"  0
Layer: 2 0 "backup"  1
NeedsXUIDChange: 1
XUID: [1021 658 797806517 11473725]
FSType: 0
OS2Version: 0
OS2_WeightWidthSlopeOnly: 0
OS2_UseTypoMetrics: 1
CreationTime: 1249326201
ModificationTime: 1249341951
OS2TypoAscent: 0
OS2TypoAOffset: 1
OS2TypoDescent: 0
OS2TypoDOffset: 1
OS2TypoLinegap: 184
OS2WinAscent: 0
OS2WinAOffset: 1
OS2WinDescent: 0
OS2WinDOffset: 1
HheadAscent: 0
HheadAOffset: 1
HheadDescent: 0
HheadDOffset: 1
DEI: 91125
Encoding: UnicodeBmp
UnicodeInterp: none
NameList: Adobe Glyph List
DisplaySize: -72
AntiAlias: 1
FitToEm: 1
WinInfo: 96 8 6
BeginPrivate: 8
BlueValues 17 [-41 0 1607 1641]
BlueScale 9 0.0241463
BlueFuzz 1 0
BlueShift 1 7
StdHW 4 [87]
StemSnapH 7 [87 93]
StdVW 5 [145]
StemSnapV 5 [145]
EndPrivate
BeginChars: 65536 53

StartChar: a
Encoding: 97 97 0
Width: 971
VWidth: 0
Flags: HMW
HStem: -41 103<296.094 508.482> -25 133<750.837 858.471> 173 20G<890.255 917> 456 77<394 574> 903 75<286.233 491.91>
VStem: 70 178<109.715 355.328> 574 156<123.706 456 526.87 830.872>
LayerCount: 3
Fore
SplineSet
248 237 m 0x9e
 248 122 319 62 396 62 c 0
 483 62 574 118 574 227 c 2
 574 456 l 1
 519 453 305 413 275 352 c 0
 257 317 248 281 248 237 c 0x9e
816 108 m 0x5e
 879 108 872 193 909 193 c 0
 925 193 932 180 932 161 c 0
 932 101 859 -25 759 -25 c 0x5e
 620 -25 609 109 609 109 c 1
 609 109 543 -41 340 -41 c 0x9e
 158 -41 70 27 70 183 c 0
 70 478 334 488 574 533 c 1
 574 664 l 2
 574 882 429 903 382 903 c 0
 225 903 248 709 160 709 c 0
 114 709 80 747 80 793 c 0
 80 875 208 978 423 978 c 0
 592 978 730 893 730 682 c 2
 730 238 l 2
 730 116 804 108 816 108 c 0x5e
EndSplineSet
Validated: 1
EndChar

StartChar: b
Encoding: 98 98 1
Width: 1138
VWidth: 1000
Flags: MW
HStem: -36 84<340.286 714.919> 856 118<430.349 691.054> 1587 20G<271.5 291>
VStem: 126 21G<12.5 39> 155 145<884.937 1424.8> 910 152<271.279 618.997>
LayerCount: 3
Fore
SplineSet
281 1607 m 0
 301 1607 306 1590 306 1557 c 2
 306 830 l 1
 306 830 418 974 598 974 c 0
 946 974 1062 674 1062 485 c 0
 1062 221 870 -36 522 -36 c 0
 412 -36 320 -10 261 -10 c 0
 218 -10 182 -34 148 -34 c 0
 129 -34 126 -23 126 -7 c 0
 126 171 155 299 155 1350 c 0
 155 1442 12 1461 12 1491 c 0
 12 1519 62 1528 154 1567 c 0
 204 1589 262 1607 281 1607 c 0
910 421 m 0
 910 679 721 856 523 856 c 0
 344 856 286 720 286 672 c 2
 286 233 l 2
 286 118 316 48 542 48 c 0
 777 48 910 228 910 421 c 0
EndSplineSet
Validated: 1
Layer: 2
SplineSet
281 1607 m 0
 301 1607 306 1590 306 1557 c 2
 306 830 l 1
 306 830 418 974 598 974 c 0
 946 974 1062 674 1062 485 c 0
 1062 221 870 -36 522 -36 c 0
 412 -36 320 -10 261 -10 c 0
 218 -10 182 -34 148 -34 c 0
 129 -34 126 -23 126 -7 c 0
 126 171 155 299 155 1350 c 0
 155 1442 12 1461 12 1491 c 0
 12 1519 62 1528 154 1567 c 0
 204 1589 262 1607 281 1607 c 0
910 421 m 0
 910 679 721 856 523 856 c 0
 344 856 286 720 286 672 c 2
 286 233 l 2
 286 118 316 48 542 48 c 0
 777 48 910 228 910 421 c 0
EndSplineSet
EndChar

StartChar: c
Encoding: 99 99 2
Width: 1023
VWidth: 1000
Flags: W
HStem: -26 145<431.458 746.833> 885 116<408.821 626.949>
VStem: 80 160<331.617 654.499>
LayerCount: 3
Fore
SplineSet
594 119 m 0
 810 119 903 248 930 248 c 0
 943 248 951 241 951 229 c 0
 951 142 789 -26 539 -26 c 0
 244 -26 80 222 80 457 c 0
 80 726 331 1001 583 1001 c 0
 766 1001 896 880 896 823 c 0
 896 770 852 736 804 736 c 0
 723 736 634 885 501 885 c 0
 334 885 240 711 240 529 c 0
 240 346 352 119 594 119 c 0
EndSplineSet
Validated: 1
EndChar

StartChar: d
Encoding: 100 100 3
Width: 1124
VWidth: 1000
Flags: W
HStem: -32 144<402.031 668.146> 912 74<339.11 697.911> 1621 20G<906.5 920>
VStem: 29 142<350.798 704.141> 786 142<170.125 854.345 908 1409.91>
LayerCount: 3
Fore
SplineSet
171 550 m 0
 171 277 378 112 564 112 c 0
 745 112 786 210 786 283 c 2
 786 796 l 2
 786 856 643 912 508 912 c 0
 332 912 171 826 171 550 c 0
786 908 m 1
 781 1357 l 2
 781 1401 766 1401 649 1447 c 1
 634 1451 607 1460 607 1482 c 0
 607 1495 620 1503 627 1507 c 0
 860 1621 902 1641 911 1641 c 0
 929 1641 937 1628 937 1610 c 0
 937 1537 931 1324 931 897 c 0
 931 674 928 399 928 292 c 0
 928 185 928 168 972 168 c 2
 1032 168 l 2
 1045 168 1082 166 1082 141 c 0
 1082 123 1063 116 947 52 c 0
 851 -1 829 -42 807 -42 c 0
 794 -42 790 -39 790 -12 c 2
 790 105 l 1
 750 70 l 2
 732 55 646 -32 484 -32 c 0
 192 -32 29 229 29 487 c 0
 29 738 184 986 526 986 c 0
 686 986 786 908 786 908 c 1
EndSplineSet
Validated: 1
EndChar

StartChar: e
Encoding: 101 101 4
Width: 934
VWidth: 1000
Flags: W
HStem: -33 146<377.009 684.293> 887 109<305.764 536.036>
VStem: 50 145<406.622 718.532> 664 213<694.273 785.255>
LayerCount: 3
Fore
SplineSet
492 996 m 0
 708 996 877 787 877 736 c 0
 877 700 807 675 786 667 c 2
 209 446 l 1
 211 418 246 113 551 113 c 0
 759 113 851 255 890 255 c 0
 898 255 908 250 908 234 c 0
 908 155 720 -33 497 -33 c 0
 308 -33 50 87 50 482 c 0
 50 827 282 996 492 996 c 0
664 731 m 0
 664 761 525 887 384 887 c 0
 234 887 195 697 195 585 c 0
 195 565 196 548 198 534 c 1
 604 688 l 2
 636 700 664 711 664 731 c 0
EndSplineSet
Validated: 1
EndChar

StartChar: f
Encoding: 102 102 5
Width: 644
VWidth: 1000
Flags: HMWO
HStem: 0 87<34.4772 182.511> 849 93<34.0378 196 337 608.928> 1504 120<508.885 764.119>
VStem: 196 143<96.2256 849 942 1258.4>
LayerCount: 3
Fore
SplineSet
496 53 m 0
 496 35 495 -5 459 -5 c 0
 452 -5 379 0 273 0 c 0
 165 0 77 -5 70 -5 c 0
 40 -5 34 17 34 41 c 0
 34 98 108 78 153 93 c 0
 193 106 196 183 196 506 c 2
 196 849 l 1
 62 849 l 2
 47 849 34 849 34 894 c 0
 34 936 47 942 62 942 c 2
 199 942 l 1
 199 994 l 2
 199 1086 209 1266 322 1415 c 0
 411 1533 537 1624 678 1624 c 0
 789 1624 820 1571 820 1532 c 0
 820 1490 785 1459 726 1459 c 0
 664 1459 636 1509 568 1509 c 0
 396 1509 334 1266 334 1009 c 2
 334 942 l 1
 583 942 l 2
 598 942 609 936 609 900 c 0
 609 855 598 849 583 849 c 2
 339 849 l 1
 338 623 337 561 337 511 c 0
 337 480 341 365 341 176 c 0
 341 86 383 91 452 87 c 0
 477 86 496 75 496 53 c 0
EndSplineSet
Validated: 1
EndChar

StartChar: g
Encoding: 103 103 6
Width: 565
VWidth: 0
Flags: W
HStem: 606 213<205.285 376.076>
VStem: 184 213<627.285 798.076>
LayerCount: 3
Fore
SplineSet
184 713 m 4
 184 772 232 819 291 819 c 4
 350 819 397 772 397 713 c 4
 397 654 350 606 291 606 c 4
 232 606 184 654 184 713 c 4
EndSplineSet
Validated: 1
EndChar

StartChar: h
Encoding: 104 104 7
Width: 565
VWidth: 0
Flags: W
HStem: 606 213<205.285 376.076>
VStem: 184 213<627.285 798.076>
LayerCount: 3
Fore
SplineSet
184 713 m 4
 184 772 232 819 291 819 c 4
 350 819 397 772 397 713 c 4
 397 654 350 606 291 606 c 4
 232 606 184 654 184 713 c 4
EndSplineSet
Validated: 1
EndChar

StartChar: i
Encoding: 105 105 8
Width: 565
VWidth: 0
Flags: W
HStem: 606 213<205.285 376.076>
VStem: 184 213<627.285 798.076>
LayerCount: 3
Fore
SplineSet
184 713 m 4
 184 772 232 819 291 819 c 4
 350 819 397 772 397 713 c 4
 397 654 350 606 291 606 c 4
 232 606 184 654 184 713 c 4
EndSplineSet
Validated: 1
EndChar

StartChar: j
Encoding: 106 106 9
Width: 565
VWidth: 0
Flags: W
HStem: 606 213<205.285 376.076>
VStem: 184 213<627.285 798.076>
LayerCount: 3
Fore
SplineSet
184 713 m 4
 184 772 232 819 291 819 c 4
 350 819 397 772 397 713 c 4
 397 654 350 606 291 606 c 4
 232 606 184 654 184 713 c 4
EndSplineSet
Validated: 1
EndChar

StartChar: k
Encoding: 107 107 10
Width: 565
VWidth: 0
Flags: W
HStem: 606 213<205.285 376.076>
VStem: 184 213<627.285 798.076>
LayerCount: 3
Fore
SplineSet
184 713 m 4
 184 772 232 819 291 819 c 4
 350 819 397 772 397 713 c 4
 397 654 350 606 291 606 c 4
 232 606 184 654 184 713 c 4
EndSplineSet
Validated: 1
EndChar

StartChar: l
Encoding: 108 108 11
Width: 565
VWidth: 0
Flags: W
HStem: 606 213<205.285 376.076>
VStem: 184 213<627.285 798.076>
LayerCount: 3
Fore
SplineSet
184 713 m 4
 184 772 232 819 291 819 c 4
 350 819 397 772 397 713 c 4
 397 654 350 606 291 606 c 4
 232 606 184 654 184 713 c 4
EndSplineSet
Validated: 1
EndChar

StartChar: m
Encoding: 109 109 12
Width: 565
VWidth: 0
Flags: W
HStem: 606 213<205.285 376.076>
VStem: 184 213<627.285 798.076>
LayerCount: 3
Fore
SplineSet
184 713 m 4
 184 772 232 819 291 819 c 4
 350 819 397 772 397 713 c 4
 397 654 350 606 291 606 c 4
 232 606 184 654 184 713 c 4
EndSplineSet
Validated: 1
EndChar

StartChar: n
Encoding: 110 110 13
Width: 565
VWidth: 0
Flags: W
HStem: 606 213<205.285 376.076>
VStem: 184 213<627.285 798.076>
LayerCount: 3
Fore
SplineSet
184 713 m 4
 184 772 232 819 291 819 c 4
 350 819 397 772 397 713 c 4
 397 654 350 606 291 606 c 4
 232 606 184 654 184 713 c 4
EndSplineSet
Validated: 1
EndChar

StartChar: o
Encoding: 111 111 14
Width: 565
VWidth: 0
Flags: W
HStem: 606 213<205.285 376.076>
VStem: 184 213<627.285 798.076>
LayerCount: 3
Fore
SplineSet
184 713 m 4
 184 772 232 819 291 819 c 4
 350 819 397 772 397 713 c 4
 397 654 350 606 291 606 c 4
 232 606 184 654 184 713 c 4
EndSplineSet
Validated: 1
EndChar

StartChar: p
Encoding: 112 112 15
Width: 565
VWidth: 0
Flags: W
HStem: 606 213<205.285 376.076>
VStem: 184 213<627.285 798.076>
LayerCount: 3
Fore
SplineSet
184 713 m 4
 184 772 232 819 291 819 c 4
 350 819 397 772 397 713 c 4
 397 654 350 606 291 606 c 4
 232 606 184 654 184 713 c 4
EndSplineSet
Validated: 1
EndChar

StartChar: q
Encoding: 113 113 16
Width: 565
VWidth: 0
Flags: W
HStem: 606 213<205.285 376.076>
VStem: 184 213<627.285 798.076>
LayerCount: 3
Fore
SplineSet
184 713 m 4
 184 772 232 819 291 819 c 4
 350 819 397 772 397 713 c 4
 397 654 350 606 291 606 c 4
 232 606 184 654 184 713 c 4
EndSplineSet
Validated: 1
EndChar

StartChar: r
Encoding: 114 114 17
Width: 565
VWidth: 0
Flags: W
HStem: 606 213<205.285 376.076>
VStem: 184 213<627.285 798.076>
LayerCount: 3
Fore
SplineSet
184 713 m 4
 184 772 232 819 291 819 c 4
 350 819 397 772 397 713 c 4
 397 654 350 606 291 606 c 4
 232 606 184 654 184 713 c 4
EndSplineSet
Validated: 1
EndChar

StartChar: s
Encoding: 115 115 18
Width: 565
VWidth: 0
Flags: W
HStem: 606 213<205.285 376.076>
VStem: 184 213<627.285 798.076>
LayerCount: 3
Fore
SplineSet
184 713 m 4
 184 772 232 819 291 819 c 4
 350 819 397 772 397 713 c 4
 397 654 350 606 291 606 c 4
 232 606 184 654 184 713 c 4
EndSplineSet
Validated: 1
EndChar

StartChar: t
Encoding: 116 116 19
Width: 565
VWidth: 0
Flags: W
HStem: 606 213<205.285 376.076>
VStem: 184 213<627.285 798.076>
LayerCount: 3
Fore
SplineSet
184 713 m 4
 184 772 232 819 291 819 c 4
 350 819 397 772 397 713 c 4
 397 654 350 606 291 606 c 4
 232 606 184 654 184 713 c 4
EndSplineSet
Validated: 1
EndChar

StartChar: u
Encoding: 117 117 20
Width: 565
VWidth: 0
Flags: W
HStem: 606 213<205.285 376.076>
VStem: 184 213<627.285 798.076>
LayerCount: 3
Fore
SplineSet
184 713 m 4
 184 772 232 819 291 819 c 4
 350 819 397 772 397 713 c 4
 397 654 350 606 291 606 c 4
 232 606 184 654 184 713 c 4
EndSplineSet
Validated: 1
EndChar

StartChar: v
Encoding: 118 118 21
Width: 565
VWidth: 0
Flags: W
HStem: 606 213<205.285 376.076>
VStem: 184 213<627.285 798.076>
LayerCount: 3
Fore
SplineSet
184 713 m 4
 184 772 232 819 291 819 c 4
 350 819 397 772 397 713 c 4
 397 654 350 606 291 606 c 4
 232 606 184 654 184 713 c 4
EndSplineSet
Validated: 1
EndChar

StartChar: w
Encoding: 119 119 22
Width: 565
VWidth: 0
Flags: W
HStem: 606 213<205.285 376.076>
VStem: 184 213<627.285 798.076>
LayerCount: 3
Fore
SplineSet
184 713 m 4
 184 772 232 819 291 819 c 4
 350 819 397 772 397 713 c 4
 397 654 350 606 291 606 c 4
 232 606 184 654 184 713 c 4
EndSplineSet
Validated: 1
EndChar

StartChar: x
Encoding: 120 120 23
Width: 565
VWidth: 0
Flags: W
HStem: 606 213<205.285 376.076>
VStem: 184 213<627.285 798.076>
LayerCount: 3
Fore
SplineSet
184 713 m 4
 184 772 232 819 291 819 c 4
 350 819 397 772 397 713 c 4
 397 654 350 606 291 606 c 4
 232 606 184 654 184 713 c 4
EndSplineSet
Validated: 1
EndChar

StartChar: y
Encoding: 121 121 24
Width: 565
VWidth: 0
Flags: W
HStem: 606 213<205.285 376.076>
VStem: 184 213<627.285 798.076>
LayerCount: 3
Fore
SplineSet
184 713 m 4
 184 772 232 819 291 819 c 4
 350 819 397 772 397 713 c 4
 397 654 350 606 291 606 c 4
 232 606 184 654 184 713 c 4
EndSplineSet
Validated: 1
EndChar

StartChar: z
Encoding: 122 122 25
Width: 565
VWidth: 0
Flags: W
HStem: 606 213<205.285 376.076>
VStem: 184 213<627.285 798.076>
LayerCount: 3
Fore
SplineSet
184 713 m 4
 184 772 232 819 291 819 c 4
 350 819 397 772 397 713 c 4
 397 654 350 606 291 606 c 4
 232 606 184 654 184 713 c 4
EndSplineSet
Validated: 1
EndChar

